<svg width="51" height="51" viewBox="0 0 51 51" fill="none" xmlns="http://www.w3.org/2000/svg">
<g clip-path="url(#clip0_124_2)">
<g filter="url(#filter0_d_124_2)">
<path d="M25.5 0C28.2317 0 46.2187 10.3849 47.5798 12.75C48.9488 15.1151 48.9488 35.8849 47.5798 38.25C46.2108 40.6151 28.2301 51 25.5 51C22.7683 51 4.78125 40.6151 3.41222 38.25C2.05115 35.8849 2.05115 15.1151 3.41222 12.75C4.78125 10.3849 22.7699 0 25.5 0ZM30.3817 14.4521C30.309 14.4511 30.2368 14.4645 30.1694 14.4915C30.102 14.5186 30.0406 14.5588 29.9888 14.6099C29.9371 14.6609 29.896 14.7217 29.8679 14.7887C29.8399 14.8558 29.8254 14.9277 29.8254 15.0004V23.2353H21.1762V14.6768H22.6615C22.7331 14.6766 22.8039 14.6623 22.8699 14.6345C22.9359 14.6068 22.9957 14.5663 23.0459 14.5153C23.0962 14.4643 23.1358 14.4039 23.1626 14.3376C23.1893 14.2712 23.2027 14.2002 23.2018 14.1286C23.2011 14.0358 23.1773 13.9446 23.1325 13.8634C23.0877 13.7821 23.0233 13.7133 22.9452 13.6632L19.5999 10.4598C19.5421 10.3876 19.4688 10.3293 19.3856 10.289C19.3023 10.2488 19.2111 10.2276 19.1186 10.2271C19.033 10.2283 18.9487 10.2491 18.8725 10.2881C18.7962 10.3271 18.7299 10.3831 18.6787 10.4518L15.1087 13.6648C15.0063 13.7271 14.9272 13.8214 14.8836 13.9331C14.84 14.0448 14.8344 14.1678 14.8675 14.283C14.9007 14.3982 14.9708 14.4994 15.0671 14.5708C15.1634 14.6423 15.2805 14.6801 15.4004 14.6784H16.8953L16.9113 36.0028C16.9113 36.3104 17.144 36.5511 17.4516 36.5511H20.6231C20.6952 36.5513 20.7666 36.5372 20.8332 36.5098C20.8998 36.4823 20.9603 36.4419 21.0113 36.391C21.0622 36.34 21.1026 36.2795 21.1301 36.2129C21.1575 36.1463 21.1716 36.0749 21.1714 36.0028V27.4938H29.8286V36.3168H28.3432C28.2234 36.3151 28.1062 36.3529 28.0099 36.4244C27.9137 36.4959 27.8435 36.597 27.8104 36.7122C27.7772 36.8275 27.7829 36.9504 27.8265 37.0621C27.87 37.1738 27.9491 37.2681 28.0516 37.3304L31.4048 40.5434C31.4957 40.6757 31.7045 40.7761 31.8862 40.7761C32.0678 40.7761 32.2177 40.6757 32.326 40.5434L35.896 37.3304C35.9752 37.2814 36.0403 37.2128 36.0853 37.1313C36.1302 37.0498 36.1534 36.9581 36.1526 36.865C36.1514 36.72 36.0932 36.5813 35.9907 36.4787C35.8881 36.3762 35.7494 36.318 35.6044 36.3168H34.1094L34.0935 15.0004C34.0954 14.9282 34.0829 14.8563 34.0566 14.789C34.0303 14.7217 33.9908 14.6603 33.9405 14.6085C33.8902 14.5567 33.83 14.5154 33.7635 14.4872C33.6969 14.459 33.6255 14.4443 33.5532 14.4442H30.3817V14.4521Z" fill="#CEB7FF"/>
</g>
</g>
<defs>
<filter id="filter0_d_124_2" x="-1.60858" y="0" width="54.2151" height="59" filterUnits="userSpaceOnUse" color-interpolation-filters="sRGB">
<feFlood flood-opacity="0" result="BackgroundImageFix"/>
<feColorMatrix in="SourceAlpha" type="matrix" values="0 0 0 0 0 0 0 0 0 0 0 0 0 0 0 0 0 0 127 0" result="hardAlpha"/>
<feOffset dy="4"/>
<feGaussianBlur stdDeviation="2"/>
<feComposite in2="hardAlpha" operator="out"/>
<feColorMatrix type="matrix" values="0 0 0 0 0 0 0 0 0 0 0 0 0 0 0 0 0 0 0.25 0"/>
<feBlend mode="normal" in2="BackgroundImageFix" result="effect1_dropShadow_124_2"/>
<feBlend mode="normal" in="SourceGraphic" in2="effect1_dropShadow_124_2" result="shape"/>
</filter>
<clipPath id="clip0_124_2">
<rect width="51" height="51" fill="white"/>
</clipPath>
</defs>
</svg>
