<svg width="52" height="52" viewBox="0 0 45 45" fill="none" xmlns="http://www.w3.org/2000/svg">
<path d="M9.375 22.5H5.625L22.5 5.625L39.375 22.5H35.625M9.375 22.5V35.625C9.375 36.6196 9.77009 37.5734 10.4733 38.2766C11.1766 38.9799 12.1304 39.375 13.125 39.375H31.875C32.8696 39.375 33.8234 38.9799 34.5266 38.2766C35.2299 37.5734 35.625 36.6196 35.625 35.625V22.5" stroke="#CEB7FF" stroke-width="3" stroke-linecap="round" stroke-linejoin="round"/>
<path d="M16.875 39.375V28.125C16.875 27.1304 17.2701 26.1766 17.9734 25.4734C18.6766 24.7701 19.6304 24.375 20.625 24.375H24.375C25.3696 24.375 26.3234 24.7701 27.0266 25.4734C27.7299 26.1766 28.125 27.1304 28.125 28.125V39.375" stroke="#CEB7FF" stroke-width="2" stroke-linecap="round" stroke-linejoin="round"/>
</svg>
