<svg width="46" height="49" viewBox="0 0 46 49" fill="none" xmlns="http://www.w3.org/2000/svg">
<g clip-path="url(#clip0_129_4)">
<g filter="url(#filter0_d_129_4)">
<path d="M6.50802 3.26672C2.91844 3.26672 0 6.19652 0 9.80006V42.4667C0 46.0703 2.91844 49.0001 6.50802 49.0001H39.0481C42.6377 49.0001 45.5561 46.0703 45.5561 42.4667V9.80006C45.5561 6.19652 42.6377 3.26672 39.0481 3.26672H6.50802ZM36.7195 11.8417L26.1643 23.9488L38.5803 40.4251H28.859L21.2527 30.4311L12.5381 40.4251H7.70793L18.9953 27.4707L7.08764 11.8417H17.053L23.9373 20.9782L31.8893 11.8417H36.7195ZM32.8757 37.5259L15.5989 14.5878H12.7211L30.1911 37.5259H32.8655H32.8757Z" fill="#CEB7FF"/>
</g>
</g>
<defs>
<filter id="filter0_d_129_4" x="-4" y="3.26672" width="53.5561" height="53.7333" filterUnits="userSpaceOnUse" color-interpolation-filters="sRGB">
<feFlood flood-opacity="0" result="BackgroundImageFix"/>
<feColorMatrix in="SourceAlpha" type="matrix" values="0 0 0 0 0 0 0 0 0 0 0 0 0 0 0 0 0 0 127 0" result="hardAlpha"/>
<feOffset dy="4"/>
<feGaussianBlur stdDeviation="2"/>
<feComposite in2="hardAlpha" operator="out"/>
<feColorMatrix type="matrix" values="0 0 0 0 0 0 0 0 0 0 0 0 0 0 0 0 0 0 0.25 0"/>
<feBlend mode="normal" in2="BackgroundImageFix" result="effect1_dropShadow_129_4"/>
<feBlend mode="normal" in="SourceGraphic" in2="effect1_dropShadow_129_4" result="shape"/>
</filter>
<clipPath id="clip0_129_4">
<rect width="46" height="49" fill="white"/>
</clipPath>
</defs>
</svg>
